<svg xmlns="http://www.w3.org/2000/svg" viewBox="0 0 32 32" width="32" height="32">
  <rect width="32" height="32" rx="8" fill="#351e28"/>
  <g transform="translate(4 4)" fill="none" stroke="#e9f056" stroke-width="2.5" stroke-linecap="round" stroke-linejoin="round">
    <path d="M10.1 2.18a10 10 0 0 1 3.8 0"/>
    <path d="M13.9 21.82a10 10 0 0 1-3.8 0"/>
    <path d="M17.61 3.72a10 10 0 0 1 2.69 2.7"/>
    <path d="M2.18 13.9a10 10 0 0 1 0-3.8"/>
    <path d="M20.28 17.61a10 10 0 0 1-2.7 2.69"/>
    <path d="M21.82 10.1a10 10 0 0 1 0 3.8"/>
    <path d="M3.72 6.39a10 10 0 0 1 2.7-2.69"/>
    <path d="M6.39 20.28a10 10 0 0 1-2.69-2.7"/>
  </g>
</svg>
