<svg xmlns="http://www.w3.org/2000/svg" width="100" height="100" viewBox="0 0 100 100" fill="none">
  <path d="M20 0l60 0c11,0 20,9 20,20l0 60c0,11 -9,20 -20,20l-60 0c-11,0 -20,-9 -20,-20l0 -60c0,-11 9,-20 20,-20z" fill="#E8500A"/>
  <path d="M67.3 40.45l0.03 -10.46c0,-0.55 -0.45,-1 -1,-1.01l-14.01 -0.05c-0.54,-0.01 -0.99,-0.45 -0.99,-0.99l-0.13 -10.72c0,-0.54 -0.45,-0.99 -1,-0.99l-25.14 0.01c-0.5,0 -0.92,0.37 -0.99,0.86 -1.55,11.3 8.36,20.97 19.07,23.19 1.66,0.34 2.63,1.58 0.01,1.59l-17.16 0.03 0 14.3c-0.01,5 0.23,8.25 1.75,12.58 5.49,15.6 26.43,17.68 39.86,12.33 6.29,-2.51 4.96,-1.92 4.96,-9.44l0 -10.75c0.03,-4.85 -0.21,-3.57 -4.31,-1.97 -3.78,1.48 -9.99,3.37 -13.82,1.76 -3.15,-1.32 -3.12,-3.89 -3.12,-7.92l0.14 -10.28c0.01,-0.54 0.45,-0.98 0.99,-0.98l13.87 -0.09c0.55,0 0.99,-0.45 0.99,-1z" fill="#110E0B"/>
</svg>
